<svg width="120" height="120" viewBox="0 0 120 120" fill="none" xmlns="http://www.w3.org/2000/svg">
<path d="M50.6594 12.809C56.9488 12.9336 63.2506 12.7529 69.5399 12.8962C75.7546 19.2357 82.0875 25.463 88.3022 31.8087C88.2835 38.092 88.2773 44.3754 88.3022 50.6588C82.044 50.6588 75.7795 50.6588 69.5213 50.665C75.8106 56.9047 82.0751 63.1756 88.3146 69.4715C88.2524 75.7548 88.296 82.0444 88.296 88.334C81.9941 88.3777 75.6736 88.1969 69.378 88.4213C69.4964 94.6423 69.3033 100.876 69.4777 107.097C63.1572 107.253 56.8242 107.178 50.4975 107.134C44.3513 100.745 37.8814 94.6174 31.7975 88.1969C31.7228 81.9135 31.8162 75.6364 31.7477 69.353C37.9623 69.3655 44.177 69.3593 50.3979 69.3468C44.1894 63.0385 37.8191 56.886 31.6854 50.5092C31.7601 44.257 31.7041 38.0048 31.7166 31.7526C38.0059 31.7463 44.3015 31.7214 50.5971 31.7588C50.7092 25.4443 50.5971 19.1235 50.6594 12.809ZM50.6656 31.7962C50.6158 38.0796 50.6532 44.3692 50.6469 50.6525C56.8803 50.6276 63.1136 50.6276 69.3469 50.6525C69.3282 44.3505 69.378 38.0546 69.3282 31.7526C63.1074 31.8336 56.8865 31.7588 50.6656 31.7962ZM50.6594 69.3904C50.6718 75.68 50.6532 81.9634 50.6656 88.253C56.8865 88.2093 63.1136 88.2093 69.3344 88.253C69.3594 81.9696 69.3469 75.6863 69.3469 69.4029C63.1198 69.4403 56.8865 69.459 50.6594 69.3904Z" fill="#4DB6AC"/>
</svg>
